<svg width="48" height="48" viewBox="0 0 48 48" fill="none" xmlns="http://www.w3.org/2000/svg">
<rect width="48" height="48" rx="24" fill="#B40006" fill-opacity="0.1"/>
<path d="M27 33L21 30.9L16.35 32.7C16.0167 32.8333 15.7083 32.7958 15.425 32.5875C15.1417 32.3792 15 32.1 15 31.75V17.75C15 17.5333 15.0625 17.3417 15.1875 17.175C15.3125 17.0083 15.4833 16.8833 15.7 16.8L21 15L27 17.1L31.65 15.3C31.9833 15.1667 32.2917 15.2042 32.575 15.4125C32.8583 15.6208 33 15.9 33 16.25V30.25C33 30.4667 32.9375 30.6583 32.8125 30.825C32.6875 30.9917 32.5167 31.1167 32.3 31.2L27 33ZM26 30.55V18.85L22 17.45V29.15L26 30.55ZM28 30.55L31 29.55V17.7L28 18.85V30.55ZM17 30.3L20 29.15V17.45L17 18.45V30.3ZM28 18.85V30.55V18.85ZM20 17.45V29.15V17.45Z" fill="#B40006"/>
</svg>
